<?xml version="1.0" standalone="no"?>
<!DOCTYPE svg PUBLIC "-//W3C//DTD SVG 20010904//EN"
 "http://www.w3.org/TR/2001/REC-SVG-20010904/DTD/svg10.dtd">
<svg version="1.0" xmlns="http://www.w3.org/2000/svg"
 width="225.000000pt" height="225.000000pt" viewBox="0 0 225.000000 225.000000"
 preserveAspectRatio="xMidYMid meet">

<g transform="translate(0.000000,225.000000) scale(0.100000,-0.100000)"
fill="#ffffff" stroke="none">
<path d="M1008 2070 c-324 -55 -526 -311 -569 -722 -26 -250 46 -515 206 -759
125 -192 268 -345 375 -404 48 -26 65 -30 130 -29 99 0 160 31 255 128 70 71
217 259 289 369 52 80 103 193 121 269 36 153 27 544 -16 683 -76 248 -273
426 -515 465 -69 11 -208 11 -276 0z m-364 -1005 c134 -35 266 -132 342 -251
33 -51 94 -190 94 -213 0 -30 -148 1 -255 54 -157 77 -251 203 -284 378 -8 46
-8 47 18 47 15 0 53 -7 85 -15z m1126 -8 c0 -37 -30 -127 -61 -188 -77 -145
-258 -261 -432 -277 l-58 -5 26 72 c39 106 90 188 164 261 89 88 230 156 329
159 27 1 32 -3 32 -22z"/>
</g>
</svg>
