<?xml version="1.0" standalone="no"?>
<!DOCTYPE svg PUBLIC "-//W3C//DTD SVG 20010904//EN"
 "http://www.w3.org/TR/2001/REC-SVG-20010904/DTD/svg10.dtd">
<svg version="1.0" xmlns="http://www.w3.org/2000/svg"
 width="580.000000pt" height="580.000000pt" viewBox="0 0 580.000000 580.000000"
 preserveAspectRatio="xMidYMid meet">

<g transform="translate(0.000000,580.000000) scale(0.100000,-0.100000)"
fill="#ffffff" stroke="none">
<path d="M2820 4880 c-30 -4 -84 -8 -119 -9 -85 -1 -286 -43 -419 -87 -205
-67 -471 -212 -632 -344 -339 -277 -592 -676 -683 -1075 -48 -210 -57 -284
-57 -467 0 -307 59 -569 189 -843 179 -376 459 -679 814 -882 345 -197 697
-277 1113 -253 278 16 489 70 740 190 399 192 726 519 925 926 65 133 140 349
159 459 6 39 18 105 26 148 9 47 14 145 14 251 0 152 -4 195 -30 336 -38 204
-85 349 -164 515 -74 154 -144 264 -253 400 -344 426 -870 700 -1398 730 -60
3 -123 7 -140 9 -16 2 -55 0 -85 -4z m415 -223 c418 -80 796 -305 1058 -630
143 -176 247 -367 316 -581 64 -197 81 -313 81 -564 0 -177 -4 -231 -21 -315
-55 -270 -175 -540 -332 -745 -33 -44 -43 -51 -53 -40 -11 11 -11 27 -3 78 15
88 5 182 -30 291 -88 274 -332 495 -633 574 -126 33 -279 48 -356 36 -34 -5
-160 -15 -282 -22 -175 -10 -243 -10 -331 -1 -164 19 -323 82 -383 152 -34 41
-77 178 -83 270 -5 75 -5 75 28 108 l33 32 -37 73 c-40 78 -45 103 -23 132 12
17 14 16 26 -21 20 -63 50 -117 84 -152 80 -86 151 -84 383 12 90 37 123 46
171 46 144 0 285 -79 434 -243 176 -193 207 -221 278 -247 53 -21 83 -25 165
-25 100 0 101 0 170 42 66 40 116 63 135 63 8 0 28 -79 55 -220 19 -97 56
-192 114 -288 104 -175 197 -224 322 -171 34 15 49 27 49 40 0 16 -8 19 -42
19 -56 0 -108 15 -148 43 -64 42 -52 53 70 62 93 8 138 34 170 100 25 52 35
147 23 214 -14 76 -30 60 -37 -36 -9 -108 -41 -184 -86 -203 -18 -7 -58 -11
-101 -8 -67 4 -74 6 -100 38 -39 46 -90 153 -144 298 -53 145 -77 193 -121
248 -29 35 -47 94 -28 94 12 0 50 -24 75 -47 14 -13 38 -25 54 -26 26 -2 29 2
46 61 10 35 23 98 29 140 7 44 22 94 35 117 l23 41 -34 46 c-49 68 -73 82
-121 69 -63 -18 -89 -13 -195 35 -56 26 -132 55 -170 64 -37 10 -87 29 -110
43 -55 32 -138 105 -138 121 0 22 43 54 90 67 25 7 46 14 48 15 2 1 -10 29
-27 61 -51 101 -137 159 -266 179 -41 6 -59 16 -105 60 -84 80 -130 97 -280
104 l-125 5 -9 40 c-5 22 -11 41 -12 43 -1 2 -26 -13 -55 -33 -48 -33 -58 -36
-99 -30 -25 3 -87 26 -137 50 l-93 44 0 63 c0 82 14 103 77 111 26 3 62 9 79
12 24 5 37 1 62 -20 l31 -26 7 28 c4 15 9 32 12 37 3 5 90 6 196 3 144 -4 223
-11 321 -30z m-897 -184 c28 -53 51 -97 49 -98 -9 -9 -233 17 -266 31 -49 19
-65 56 -35 79 22 16 92 35 128 35 21 0 26 5 26 25 0 19 5 25 23 25 19 0 32
-18 75 -97z m-194 -168 c44 -17 55 -28 38 -38 -4 -3 -61 -15 -127 -26 -208
-37 -285 -87 -440 -289 l-79 -104 -53 7 c-61 7 -65 0 -38 -75 23 -65 19 -92
-25 -158 -22 -33 -49 -86 -60 -118 -22 -62 -54 -299 -65 -474 -11 -174 -48
-293 -112 -361 l-24 -26 27 -18 c45 -30 93 -30 165 -1 36 14 68 26 72 26 3 0
30 -49 61 -110 30 -60 86 -156 125 -212 l71 -104 0 -148 c0 -133 -2 -152 -21
-182 -21 -34 -21 -34 -97 -34 l-77 0 47 -47 c44 -43 51 -47 107 -51 60 -4 62
-4 100 34 40 40 61 103 61 179 0 32 2 35 30 35 51 0 88 -25 99 -68 15 -55 41
-210 41 -243 0 -59 54 -26 91 56 16 35 33 66 38 70 15 9 313 -111 359 -145 46
-33 59 -73 47 -137 -16 -84 -49 -115 -176 -159 -164 -57 -334 -40 -462 46
-168 114 -347 297 -469 480 -66 100 -170 313 -207 425 -17 50 -41 143 -55 208
-24 107 -26 140 -26 343 0 209 2 233 29 362 101 476 356 859 756 1135 l80 55
61 -58 c35 -32 83 -65 108 -75z m967 -330 c46 -33 86 -81 76 -91 -4 -4 -50 7
-104 24 -54 17 -123 34 -154 37 -70 9 -83 16 -74 45 7 21 11 22 110 18 96 -3
106 -5 146 -33z m135 -341 c55 -29 143 -95 289 -219 54 -46 126 -99 158 -117
33 -18 75 -46 94 -62 33 -28 35 -33 31 -78 -5 -52 -30 -88 -60 -88 -32 0 -240
111 -443 236 -212 130 -333 196 -393 215 -27 8 -42 19 -46 33 -7 27 -5 28 89
70 68 30 91 35 156 36 63 0 85 -5 125 -26z m590 -95 c39 -19 43 -52 9 -67 -28
-13 -103 -16 -129 -6 -23 9 -22 81 2 88 26 7 86 0 118 -15z m115 -389 c16 -9
49 -58 49 -75 0 -3 -22 -5 -50 -5 -47 0 -50 2 -50 26 0 25 16 64 26 64 3 0 14
-5 25 -10z"/>
</g>
</svg>
